SplineFontDB: 3.0
FontName: post_bbx
FullName: post_bbx
FamilyName: post_bbx
Weight: Medium
Copyright: Created by Andrey V. Panov with FontForge 1.0 (http://fontforge.sf.net)
UComments: "2006-6-13: Created." 
Version: 1
ItalicAngle: 0
UnderlinePosition: -100
UnderlineWidth: 50
Ascent: 800
Descent: 200
LayerCount: 2
Layer: 0 0 "+BBcEMAQ0BD0EOAQ5 +BD8EOwQwBD0A"  1
Layer: 1 0 "+BB8ENQRABDUENAQ9BDgEOQAA +BD8EOwQwBD0A"  0
NeedsXUIDChange: 1
XUID: [1021 305 2130962764 7662416]
OS2Version: 0
OS2_WeightWidthSlopeOnly: 0
OS2_UseTypoMetrics: 0
CreationTime: 1150940927
ModificationTime: 1239244467
OS2TypoAscent: 0
OS2TypoAOffset: 1
OS2TypoDescent: 0
OS2TypoDOffset: 1
OS2TypoLinegap: 0
OS2WinAscent: 0
OS2WinAOffset: 1
OS2WinDescent: 0
OS2WinDOffset: 1
HheadAscent: 0
HheadAOffset: 1
HheadDescent: 0
HheadDOffset: 1
OS2Vendor: 'PfEd'
DEI: 91125
Encoding: UnicodeBmp
Compacted: 1
UnicodeInterp: none
NameList: Adobe Glyph List
DisplaySize: -48
AntiAlias: 1
FitToEm: 1
WinInfo: 0 16 14
BeginPrivate: 1
BlueValues 23 [-11 0 472 489 695 695]
EndPrivate
BeginChars: 65539 54

StartChar: numbersign
Encoding: 35 35 0
Width: 917
Flags: HMW
HStem: -168 21 109 72<96 275 329 514 567 802> 346 73<112 347 400 585 639 805> 694 -21
LayerCount: 2
Back
SplineSet
61 145 m 0
 61 181 91 181 115 181 c 2
 275 181 l 1
 324 346 l 1
 112 346 l 2
 80 346 61 353 61 382 c 0
 61 422 104 419 115 419 c 2
 347 419 l 1
 425 679 421 694 457 694 c 0
 477 694 493 676 493 659 c 0
 493 644 451 513 423 419 c 1
 585 419 l 1
 664 679 659 694 696 694 c 0
 716 694 731 676 731 659 c 0
 731 644 689 513 661 419 c 1
 805 419 l 2
 828 419 854 414 854 382 c 0
 854 346 817 346 805 346 c 2
 639 346 l 1
 590 181 l 1
 802 181 l 2
 833 181 854 175 854 145 c 0
 854 109 820 109 800 109 c 2
 567 109 l 1
 490 -147 494 -166 457 -166 c 0
 435 -166 421 -148 421 -130 c 0
 421 -122 426 -108 491 109 c 1
 329 109 l 1
 252 -147 255 -166 219 -166 c 0
 196 -166 183 -148 183 -130 c 0
 183 -122 188 -108 253 109 c 1
 112 109 l 2
 80 109 61 116 61 145 c 0
351 181 m 1
 514 181 l 1
 563 346 l 1
 400 346 l 1
 351 181 l 1
61 145 m 0
 61 181 91 181 115 181 c 2
 275 181 l 1
 324 346 l 1
 112 346 l 2
 80 346 61 353 61 382 c 0
 61 422 104 419 115 419 c 2
 347 419 l 1
 425 679 421 694 457 694 c 0
 477 694 493 676 493 659 c 0
 493 644 451 513 423 419 c 1
 585 419 l 1
 664 679 659 694 696 694 c 0
 716 694 731 676 731 659 c 0
 731 644 689 513 661 419 c 1
 805 419 l 2
 828 419 854 414 854 382 c 0
 854 346 817 346 805 346 c 2
 639 346 l 1
 590 181 l 1
 802 181 l 2
 833 181 854 175 854 145 c 0
 854 109 820 109 800 109 c 2
 567 109 l 1
 490 -147 494 -166 457 -166 c 0
 435 -166 421 -148 421 -130 c 0
 421 -122 426 -108 491 109 c 1
 329 109 l 1
 252 -147 255 -166 219 -166 c 0
 196 -166 183 -148 183 -130 c 0
 183 -122 188 -108 253 109 c 1
 112 109 l 2
 80 109 61 116 61 145 c 0
351 181 m 1
 514 181 l 1
 563 346 l 1
 400 346 l 1
 351 181 l 1
EndSplineSet
Fore
SplineSet
61 145 m 0
 61 181 91 181 115 181 c 2
 275 181 l 1
 324 346 l 1
 112 346 l 2
 80 346 61 353 61 382 c 0
 61 418 91 419 115 419 c 2
 347 419 l 1
 425 679 421 694 457 694 c 0
 477 694 493 676 493 659 c 0
 493 644 451 513 423 419 c 1
 585 419 l 1
 664 679 659 694 696 694 c 0
 716 694 731 676 731 659 c 0
 731 644 689 513 661 419 c 1
 805 419 l 2
 828 419 854 414 854 382 c 0
 854 346 817 346 805 346 c 2
 639 346 l 1
 590 181 l 1
 802 181 l 2
 833 181 854 175 854 145 c 0
 854 109 820 109 800 109 c 2
 567 109 l 1
 490 -147 494 -166 457 -166 c 0
 435 -166 421 -148 421 -130 c 0
 421 -122 426 -108 491 109 c 1
 329 109 l 1
 252 -147 255 -166 219 -166 c 0
 196 -166 183 -148 183 -130 c 0
 183 -122 188 -108 253 109 c 1
 112 109 l 2
 80 109 61 116 61 145 c 0
351 181 m 1
 514 181 l 1
 563 346 l 1
 400 346 l 1
 351 181 l 1
EndSplineSet
EndChar

StartChar: two
Encoding: 50 50 1
Width: 550
Flags: HW
HStem: 0 106<54 494> 617 100<194 334.5>
VStem: 353 141<431.5 545>
LayerCount: 2
Fore
SplineSet
45 574 m 1
 73 643 130 717 258 717 c 0
 411 717 494 603 494 487 c 0
 494 385 419 333 287 229 c 2
 149 106 l 1
 494 108 l 1
 494 0 l 1
 54 0 l 1
 54 100 l 1
 207 254 l 2
 252 297 353 378 353 485 c 0
 353 552 315 617 242 617 c 0
 163 617 132 551 114 486 c 1
 45 574 l 1
EndSplineSet
EndChar

StartChar: four
Encoding: 52 52 2
Width: 550
Flags: HMW
HStem: -0 21G<304 428> 152 95<30 309 428 518> 675 20G<273 428>
VStem: 309 119<247 695>
LayerCount: 2
Fore
SplineSet
30 152 m 1
 30 247 l 1
 273 695 l 1
 428 695 l 1
 428 247 l 1
 518 247 l 1
 518 152 l 1
 428 152 l 1
 428 -0 l 1
 304 -0 l 1
 304 152 l 1
 30 152 l 1
135 247 m 1
 309 247 l 1
 309 592 l 1
 291 528 144 266 135 247 c 1
EndSplineSet
EndChar

StartChar: seven
Encoding: 55 55 3
Width: 550
Flags: HW
HStem: -11 21G<142 284> 588 107<45 503>
VStem: 142 142<-11 101.5>
LayerCount: 2
Fore
SplineSet
45 587 m 1
 45 695 l 1
 503 695 l 1
 503 594 l 1
 358 422 284 200 284 -11 c 1
 142 -11 l 1
 142 214 238 433 424 588 c 1
 45 587 l 1
EndSplineSet
EndChar

StartChar: B
Encoding: 66 66 4
Width: 733
Flags: HW
HStem: 0 87<233 403> 325 73<233 367.5> 608 87<234 417.25>
VStem: 91 142<0 695> 504 137<454 530.5> 532 139<154 261>
LayerCount: 2
Fore
SplineSet
91 0 m 1
 91 695 l 1
 344 695 l 2
 416 695 491 695 555 660 c 0
 632 619 641 547 641 514 c 0xf8
 641 394 517 369 494 363 c 1
 545 356 671 329 671 193 c 0xf4
 671 115 633 55 562 25 c 0
 502 -0 435 0 371 0 c 2
 91 0 l 1
233 87 m 1
 362 87 l 2
 430 87 479 95 509 130 c 0
 525 148 532 173 532 197 c 0xf4
 532 244 510 279 478 299 c 0
 438 323 390 325 345 325 c 2
 234 325 l 1
 234 325 233 300 233 290 c 2
 233 87 l 1
233 398 m 1
 331 398 l 2
 396 398 453 405 483 447 c 0
 495 462 504 485 504 511 c 0xf8
 504 550 479.5 608 355 608 c 2
 234 608 l 1
 234 608 233 586 233 576 c 2
 233 398 l 1
EndSplineSet
EndChar

StartChar: M
Encoding: 77 77 5
Width: 978
Flags: HW
HStem: -0 21G<91 214 762 886> 675 20G<91 280.098 694.902 886>
VStem: 91 123<0 569> 762 124<0 569>
DStem2: 421 327 294 353 0.375296 -0.926905<-299.873 187.489> 554 327 687 369 0.375296 0.926905<-188.086 299.435>
LayerCount: 2
Fore
SplineSet
91 -0 m 1
 91 695 l 1
 272 695 l 1
 421 327 l 2
 490 149 465 215 487 148 c 1
 488 148 l 1
 503 203 499 185 554 327 c 2
 703 695 l 1
 886 695 l 1
 886 -0 l 1
 762 -0 l 1
 762 569 l 1
 744 508 733 489 687 369 c 2
 546 22 l 1
 428 22 l 1
 294 353 l 2
 252 460 225 525 214 569 c 1
 214 -0 l 1
 91 -0 l 1
EndSplineSet
EndChar

StartChar: W
Encoding: 87 87 6
Width: 1039
Flags: HMW
HStem: -0 21G<197.59 391.5 646.5 840.41> 675 20G<15 152.312 431.866 606.522 886.306 1023>
VStem: 15 132<563 695> 891 132<563 695>
DStem2: 147 695 15 695 0.261119 -0.965307<0 588.87> 341 321 369 0 0.248625 0.9686<-198.511 284.468> 601 695 519 569 0.260824 -0.965386<100.251 590.437> 755 125 835 -0 0.261119 0.965307<0 481.302>
LayerCount: 2
Back
SplineSet
516 569 m 1
 492 454 411 171 366 -0 c 1
 203 -0 l 1
 15 695 l 1
 147 695 l 1
 147 695 243 344 266 247 c 2
 295 125 l 1
 304 185 302 165 341 321 c 2
 441 695 l 1
 605 695 l 1
 712 293 l 2
 727 237 742 182 755 125 c 1
 761 161 772 197 799 303 c 2
 904 695 l 1
 1023 695 l 1
 835 -0 l 1
 666 -0 l 1
 564 379 l 2
 548 442 531 505 516 569 c 1
EndSplineSet
Fore
SplineSet
15 695 m 1
 147 695 l 1
 147 695 243 344 266 247 c 2
 295 125 l 1
 304 185 301 165 341 321 c 2
 437 695 l 1
 601 695 l 1
 712 293 l 2
 727 237 742 182 755 125 c 1
 761 161 774 197 799 303 c 2
 891 695 l 1
 1023 695 l 1
 835 -0 l 1
 669 0 l 1
 624 171 543 454 519 569 c 1
 495 454 414 171 369 0 c 1
 203 -0 l 1
 15 695 l 1
EndSplineSet
EndChar

StartChar: Y
Encoding: 89 89 7
Width: 733
Flags: HMW
HStem: 0 21G<293 438> 675 20G<2 248.5 552 728>
VStem: 293 145<0 278>
DStem2: 179 695 2 695 0.572274 -0.820063<0 310.365> 569 695 728 695 0.570949 0.820985<-285.367 0>
LayerCount: 2
Fore
SplineSet
2 695 m 1
 179 695 l 1
 318 493 359 434 374 403 c 1
 392 447 535 643 569 695 c 1
 728 695 l 1
 438 278 l 1
 438 0 l 1
 293 0 l 1
 293 278 l 1
 2 695 l 1
EndSplineSet
EndChar

StartChar: Z
Encoding: 90 90 8
Width: 672
Flags: W
HStem: 0 101<245 616> 595 100<75 426>
DStem2: 60 67 245 101 0.566792 0.823861<132.868 645.74>
LayerCount: 2
Fore
SplineSet
60 0 m 1
 60 67 l 1
 426 599 l 1
 75 595 l 1
 75 695 l 1
 610 695 l 1
 610 631 l 1
 245 101 l 1
 616 105 l 1
 616 0 l 1
 60 0 l 1
EndSplineSet
EndChar

StartChar: b
Encoding: 98 98 9
Width: 561
Flags: HMW
HStem: -11 73<251 384.5> 0 21<60 197 60 60> 411 72<266.5 421.746> 675 20G<60 194>
VStem: 60 137<0 695> 386 137<146 299.92>
LayerCount: 2
Fore
SplineSet
60 0 m 1
 60 695 l 1
 194 695 l 1
 194 424 l 1
 233 456 285 483 354 483 c 0x7c
 489.492 483 523 365.84 523 234 c 0
 523 58 444 -11 325 -11 c 0xbc
 267 -11 229 12 197 44 c 1
 197 0 l 1
 60 0 l 1
197 97 m 1
 206 88 228 62 274 62 c 0
 378 62 386 138 386 232 c 0
 386 331 384 411 285 411 c 0
 248 411 223 398 197 378 c 1
 197 97 l 1
EndSplineSet
EndChar

StartChar: d
Encoding: 100 100 10
Width: 561
Flags: HMW
HStem: -11 72<203.5 303> 0 21<362 499 362 362> 411 72<199 300.5> 675 20G<365 499>
VStem: 36 137<205 289> 362 137<-0 382> 365 134<428 695>
LayerCount: 2
Fore
SplineSet
36 238 m 0
 36 316 48 398 105 445 c 0
 136 472 178 483 220 483 c 0xbc
 283 483 330 458 365 428 c 1
 365 695 l 1
 499 695 l 1xba
 499 -0 l 1
 362 -0 l 1
 362 52 l 1
 325 15 282 -11 219 -11 c 0
 188 -11 111 -5 68 72 c 0
 43 118 36 172 36 238 c 0
173 250 m 0
 173 169 174 124 197 94 c 0
 215 72 245 61 273 61 c 0
 333 61 359 102 362 103 c 1
 362 382 l 1xbc
 337 401 316 411 285 411 c 0
 179 411 173 328 173 250 c 0
EndSplineSet
EndChar

StartChar: g
Encoding: 103 103 11
Width: 561
Flags: HW
HStem: -190 73<222 318> 24 73<181 311> 411 72<148 310>
VStem: 36 137<151.5 300.5> 362 137<-5.5 121> 365 134<228.5 345 413 483>
LayerCount: 2
Fore
SplineSet
36 236 m 0
 36 334 58 483 238 483 c 0
 299 483 334 455 365 413 c 1
 365 483 l 1
 499 483 l 1xf4
 499 24 l 2
 499 -25 498 -89 449 -136 c 0
 403 -181 333 -190 275 -190 c 0
 191 -190 139 -173 76 -139 c 1
 76 -47 l 1
 127 -85 174 -117 270 -117 c 0xf8
 362 -117 362 -35 362 10 c 2
 362 121 l 1xf8
 341 75 302 24 229 24 c 0
 133 24 36 67 36 236 c 0
173 238 m 0
 173 177 186 97 272 97 c 0
 350 97 365 207 365 250 c 2
 365 345 l 2xf4
 364 368 335 411 285 411 c 0
 218 411 173 363 173 238 c 0
EndSplineSet
EndChar

StartChar: o
Encoding: 111 111 12
Width: 550
Flags: HW
HStem: -11 78<212 336> 416 73<212 336>
VStem: 30 136<133.5 337.5> 382 136<133.5 337.5>
LayerCount: 2
Fore
SplineSet
30 239 m 0
 30 436 150 489 274 489 c 0
 398 489 518 436 518 239 c 0
 518 28 398 -11 274 -11 c 0
 150 -11 30 28 30 239 c 0
166 241 m 0
 166 164 166 67 274 67 c 0
 382 67 382 164 382 241 c 0
 382 323 382 416 274 416 c 0
 166 416 166 323 166 241 c 0
EndSplineSet
EndChar

StartChar: z
Encoding: 122 122 13
Width: 476
Flags: HW
HStem: 0 74<185 442> 402 70<45 286>
DStem2: 30 49 185 74 0.584906 0.811101<110.938 437.677>
LayerCount: 2
Fore
SplineSet
30 0 m 1
 30 49 l 1
 286 404 l 1
 45 402 l 1
 45 472 l 1
 439 472 l 1
 439 427 l 1
 185 74 l 1
 442 76 l 1
 442 0 l 1
 30 0 l 1
EndSplineSet
EndChar

StartChar: Xi
Encoding: 926 926 14
Width: 733
Flags: HW
HStem: -0 120<45 686> 298 121<121 610> 569 120<51 680>
LayerCount: 2
Fore
SplineSet
45 -0 m 1
 45 122 l 1
 45 122 244 120 366 120 c 16
 488 120 686 122 686 122 c 1
 686 -0 l 1
 45 -0 l 1
51 567 m 1
 51 689 l 1
 680 689 l 1
 680 567 l 1
 680 567 488 569 366 569 c 16
 244 569 51 567 51 567 c 1
121 298 m 1
 121 419 l 1
 610 419 l 1
 610 298 l 1
 121 298 l 1
EndSplineSet
EndChar

StartChar: Sigma
Encoding: 931 931 15
Width: 794
Flags: HMW
HStem: 0 110<323 732> 590 105<269 732>
DStem2: 269 593 60 594 0.70307 -0.711121<0 224.999> 322 329 323 110 0.622954 0.782259<-170.692 0>
LayerCount: 2
Fore
SplineSet
60 0 m 1
 322 329 l 1
 60 594 l 1
 60 695 l 1
 732 695 l 1
 732 590 l 1
 269 593 l 1
 512 348 l 1
 512 347 l 1
 323 110 l 1
 732 113 l 1
 732 0 l 1
 60 0 l 1
EndSplineSet
EndChar

StartChar: Omega
Encoding: 937 937 16
Width: 794
Flags: HW
HStem: 0 106<48 343 450 745> 644 73<344 469>
VStem: 60 148<381 539> 585 147<380 520>
LayerCount: 2
Fore
SplineSet
48 0 m 1
 48 108 l 1
 245 106 l 1
 172 248 60 328 60 465 c 0
 60 512 73 576 112 623 c 0
 181 705 303 717 392 717 c 0
 501 717 615.836 700.864 681 622 c 0
 719.902 574.919 732 512 732 465 c 0
 732 328 620 247 548 106 c 1
 745 108 l 1
 745 0 l 1
 450 0 l 1
 452 173 585 295 585 465 c 0
 585 575 542 644 396 644 c 0
 292 644 208 611 208 467 c 0
 208 295 341 173 343 0 c 1
 48 0 l 1
EndSplineSet
EndChar

StartChar: alpha
Encoding: 945 945 17
Width: 697
Flags: HMW
HStem: -11 125<213.5 288 524.5 602> 359 124<186.5 300>
VStem: 45 137<199.5 326.5> 354 146<218 221> 596 136<154 154>
LayerCount: 2
Fore
SplineSet
45 239 m 0
 45 414 126 483 247 483 c 0
 353 483 409 401 423 384 c 1
 455 483 l 1
 591 483 l 1
 510 228 500 237 500 221 c 0
 500 214 532 114 562 114 c 0
 592 114 596 154 596 154 c 1
 732 154 l 1
 730 48 642 -11 562 -11 c 0
 487 -11 442 41 417 81 c 1
 375 33 329 -11 247 -11 c 0
 180 -11 114 13 78 78 c 0
 53 122 45 174 45 239 c 0
182 241 m 0
 182 158 182 113 248 113 c 0
 305 113 353 206 354 218 c 1
 353 225 339 266 325 296 c 0
 301 343 277 359 247 359 c 0
 182 359 182 307 182 241 c 0
EndSplineSet
EndChar

StartChar: gamma
Encoding: 947 947 18
Width: 611
Flags: HMW
HStem: -179 21<284 330.5> 346 137<168.5 235 565 565>
VStem: 30 137<301 301> 191 227<-105 -24>
LayerCount: 2
Fore
SplineSet
30 301 m 1
 32 419 128 483 209 483 c 0
 261 483 303 453 338 376 c 1
 382 426 461 482 565 483 c 1
 565 347 l 1
 452 344 391 236 391 222 c 2
 398.499 181.5 l 2
 406.383 137.311 418 56.523 418 -63 c 0
 418 -147 356 -179 305 -179 c 0
 263 -179 191 -156 191 -61 c 0
 191 13 201 129 249 237 c 0
 255 250 258 255 258 263 c 0
 258 269 246 346 210 346 c 0
 198 346 171 338 167 301 c 1
 30 301 l 1
EndSplineSet
EndChar

StartChar: iota
Encoding: 953 953 19
Width: 306
Flags: HW
HStem: -11 110<133.5 198.5> 453 20G<45 182>
VStem: 45 137<120.5 473> 195 96<125 125>
LayerCount: 2
Fore
SplineSet
45 140 m 2
 45 473 l 1
 182 473 l 1
 182 124 l 2
 182 117 182 99 186 99 c 0
 197 99 196 116 195 125 c 1
 291 125 l 1
 288 39 229 -11 168 -11 c 0
 99 -11 52 44 46 103 c 0
 45 115 45 128 45 140 c 2
EndSplineSet
EndChar

StartChar: lambda
Encoding: 955 955 20
Width: 550
Flags: HW
HStem: -0 21G<30 179.245 358.83 519> 557 137<89.167 173>
VStem: 30 143<0 143> 368 151<0 151>
DStem2: 30 -0 173 -0 0.297889 0.9546<42.5982 307.645> 288 504 252 253 0.416655 -0.909065<213.176 491.501>
LayerCount: 2
Fore
SplineSet
30 -0 m 1
 162 423 l 2
 166 439 168 443 168 451 c 0
 168 457 167 466 165 486 c 0
 161 522 155 557 117 557 c 0
 89 557 80 528 63 504 c 0
 60 499 53 492 53 492 c 1
 30 627 l 1
 89 684 134 694 160 694 c 0
 186 694 211 668 288 504 c 2
 519 -0 l 1
 368 -0 l 1
 252 253 l 1
 173 -0 l 1
 30 -0 l 1
EndSplineSet
EndChar

StartChar: mu
Encoding: 956 956 21
Width: 611
Flags: HMW
HStem: -167 21<45 182 45 45> -11 121<408 493.5> 453 20G<45 182 271 408>
VStem: 45 137<-167 473> 271 137<172 473> 519 94<116 167>
LayerCount: 2
Fore
SplineSet
45 -167 m 1
 45 473 l 1
 182 473 l 1
 182 201 l 2
 183 140 209 126 227 126 c 0
 245 126 271 143 271 201 c 2
 271 473 l 1
 408 473 l 1
 408 200 l 2
 408 176 409 160 416 145 c 0
 424 127 438 110 463 110 c 0
 488 110 519 133 519 167 c 2
 517 182 l 1
 612 182 l 1
 613 175 613 167 613 160 c 0
 613 72 545 -11 442 -11 c 0
 374 -11 341 24 314 52 c 1
 292 1 256 -11 227 -11 c 0
 202 -11 182 -1 182 0 c 1
 182 -167 l 1
 45 -167 l 1
EndSplineSet
EndChar

StartChar: xi
Encoding: 958 958 22
Width: 519
Flags: HW
HStem: -178 102<321 345> 358 137<287 336> 567 124<222 275> 695 20G<60 197>
VStem: 45 137<186 262> 133 72<504 540> 335 137<-102 -26>
LayerCount: 2
Fore
SplineSet
45 226 m 0xfa
 45 263 53 363 159 439 c 1
 145 460 133 488 133 520 c 0
 133 549 142 569 153 588 c 1
 78 620 62 668 60 715 c 1
 197 715 l 1
 200 702 207 691 237 691 c 0
 265 691 279 693 373 715 c 1
 405 582 l 1
 367 574 327 567 275 567 c 2
 257 567 l 2xf6
 242 567 205 558 205 522 c 0xf6
 205 496.506 231 495 303 495 c 2
 336 495 l 1
 336 358 l 1
 247 355 182 298 182 226 c 0
 182 180 210 147 241 139 c 0
 261 134 270 140 310 131 c 0
 416 106 472 13 472 -65 c 0
 472 -139 403 -170 345 -177 c 1
 321 -178 l 1
 321 -71 l 1
 327 -73 331 -76 333 -76 c 0
 335 -76 335 -74 335 -67 c 0
 335 -56 332 -36 311 -19 c 0
 270 16 229 -18 148 33 c 0
 84 74 45 146 45 226 c 0xfa
EndSplineSet
EndChar

StartChar: pi
Encoding: 960 960 23
Width: 642
Flags: HW
HStem: -11 121<466.5 542> 348 124<137 596>
VStem: 161 136<-11 348> 378 137<184 348> 541 89<125 181>
LayerCount: 2
Fore
SplineSet
-17 437 m 1
 65 469 118 472 190 472 c 2
 596 472 l 1
 596 348 l 1
 515 348 l 1
 515 184 l 2
 515 173 508 141 508 130 c 0
 508 114 518 110 524 110 c 0
 538 110 541 123 541 131 c 0
 541 144 535 161 535 181 c 1
 630 181 l 1
 630 69 580 -11 504 -11 c 0
 429 -11 386 65 379 157 c 0
 378 176 378 195 378 214 c 2
 378 348 l 1
 297 348 l 1
 297 -11 l 1
 161 -11 l 1
 161 348 l 1
 113 348 79 333 41 314 c 1
 -17 437 l 1
EndSplineSet
EndChar

StartChar: sigma1
Encoding: 962 962 24
Width: 489
Flags: HMW
HStem: -185 124<274 274> 0 123<209 291> 336 136<278 442>
VStem: 44 133<158.5 264> 304 138<-63.5 10.5>
LayerCount: 2
Fore
SplineSet
44 212 m 0
 44 316 114 472 442 472 c 1
 442 336 l 1
 334 336 251 332 206 279 c 0
 188 258 177 230 177 203 c 0
 177 166 197 136 226 127 c 0
 245 121 253 126 291 119 c 0
 360 106 442 56 442 -35 c 0
 442 -92 400 -179 274 -185 c 1
 274 -61 l 1
 301 -55 304 -40 304 -35 c 0
 304 7 244 -3 209 3 c 0
 116 20 44 105 44 212 c 0
EndSplineSet
EndChar

StartChar: upsilon
Encoding: 965 965 25
Width: 550
Flags: HMW
HStem: -11 137<254 368> 452 20G<45 210 296 452>
VStem: 118 137<195 227> 366 137<171 307>
LayerCount: 2
Fore
SplineSet
45 472 m 1
 210 472 l 1
 239 391 255 325 255 227 c 0
 255 187 266 126 309 126 c 0
 343 126 366 157 366 237 c 0
 366 377 296 468 296 472 c 1
 452 472 l 1
 481 406 503 329 503 240 c 0
 503 102 425 -11 311 -11 c 0
 197 -11 133 96 121 195 c 0
 111 269 134 324 45 472 c 1
EndSplineSet
EndChar

StartChar: chi
Encoding: 967 967 26
Width: 611
Flags: HW
HStem: -181 139<497.637 565> 348 139<45.2842 110.784>
VStem: 45 156<-178 -22> 408 156<327 483>
DStem2: 45 -178 201 -178 0.481359 0.876524<75.092 286.347 542.86 754.115>
LayerCount: 2
Fore
SplineSet
45 -178 m 1
 228 154 l 1
 171 262 122 348 56 348 c 0
 53 348 45 347 45 347 c 1
 45 483 l 1
 57 486 69 487 81 487 c 0
 212 487 284 330 306 298 c 1
 408 483 l 1
 564 483 l 1
 381 151 l 1
 454 12 496 -42 553 -42 c 0
 558 -42 565 -41 565 -41 c 1
 565 -178 l 1
 552 -180 540 -181 527 -181 c 0
 397 -181 326 -26 303 7 c 1
 201 -178 l 1
 45 -178 l 1
EndSplineSet
EndChar

StartChar: omega
Encoding: 969 969 27
Width: 733
Flags: HW
HStem: -11 109<180.5 266.5 466.5 552.5> 452 20G<154 318 414 578>
VStem: 38 137<144 261.5> 304 123<207 300> 557 137<144 261.5>
LayerCount: 2
Fore
SplineSet
38 203 m 0
 38 320 99 412 154 472 c 1
 318 472 l 1
 268 416 175 321 175 200 c 0
 175 139 199 98 236 98 c 0
 260 98 278 116 288 133 c 0
 303 160 304 192 304 222 c 2
 304 300 l 1
 427 300 l 1
 427 222 l 2
 427 192 428 160 443 133 c 0
 453 116 471 98 495 98 c 0
 532 98 557 139 557 200 c 0
 557 321 464 416 414 472 c 1
 578 472 l 1
 633 412 694 320 694 203 c 0
 694 85 608 -11 497 -11 c 0
 436 -11 395 16 366 45 c 1
 337 16 297 -11 236 -11 c 0
 125 -11 38 85 38 203 c 0
EndSplineSet
EndChar

StartChar: afii10051
Encoding: 1026 1026 28
Width: 886
Flags: HW
HStem: -22 72<614 753> 422 73<527.5 744> 593 102<39 693>
VStem: 292 148<0 594> 709 137<210 316>
LayerCount: 2
Fore
SplineSet
39 590 m 1
 39 695 l 1
 693 695 l 1
 693 591 l 1
 440 594 l 1
 440 378 l 1
 501 486 605 495 655 495 c 0
 833 495 846 413 846 311 c 2
 846 247 l 2
 846 136 846 -22 642 -22 c 0
 588 -22 560 -15 517 0 c 1
 546 108 l 1
 565 79 585 50 643 50 c 0
 708 50 709 108 709 241 c 2
 709 316 l 2
 709 388 686 422 585 422 c 0
 470 422 446 326 442 300 c 0
 440 287 440 275 440 262 c 2
 440 0 l 1
 292 0 l 1
 292 593 l 1
 39 590 l 1
EndSplineSet
EndChar

StartChar: afii10060
Encoding: 1035 1035 29
Width: 840
Flags: HW
HStem: 0 21G<262 410 641 778> 411 73<512.5 690.5> 593 102<40 693>
VStem: 262 148<0 594> 641 137<0 354>
LayerCount: 2
Fore
SplineSet
40 590 m 1
 40 695 l 1
 693 695 l 1
 693 591 l 1
 410 594 l 5
 410 377 l 1
 467 476 561 484 608 484 c 0
 773 484 778 390 778 318 c 2
 778 0 l 1
 641 0 l 1
 641 316 l 2
 641 371 631 411 536 411 c 0
 489 411 410 388 410 261 c 2
 410 0 l 1
 262 0 l 1
 262 593 l 1
 40 590 l 1
EndSplineSet
EndChar

StartChar: afii10018
Encoding: 1041 1041 30
Width: 733
Flags: HW
HStem: 0 87<233 411> 314 95<233 417.5> 590 105<611 611>
VStem: 91 142<0 695> 532 139<178 226>
LayerCount: 2
Fore
SplineSet
91 0 m 1
 91 695 l 1
 611 695 l 1
 611 590 l 1
 233 594 l 1
 233 409 l 1
 384 409 l 2
 451 409 522 407 582 372 c 0
 666 323 671 237 671 202 c 0
 671 154 658 105 625 69 c 0
 561 0 450 -0 372 0 c 2
 91 0 l 1
233 87 m 1
 358 87 l 2
 433 87 486 96 515 140 c 0
 526 157 532 179 532 202 c 0
 532 250 507 278 480 293 c 0
 443 313 400 314 359 314 c 2
 234 314 l 1
 234 314 233 290 233 280 c 2
 233 87 l 1
EndSplineSet
EndChar

StartChar: afii10026
Encoding: 1048 1048 31
Width: 764
Flags: HW
HStem: 0 21G<91 289.139 541 671> 675 20G<91 221 472.877 671>
VStem: 91 130<125 695> 541 130<0 569>
DStem2: 222 125 280 0 0.415005 0.909819<0 535.931>
LayerCount: 2
Fore
SplineSet
91 0 m 1
 91 695 l 1
 221 695 l 1
 221 157 l 2
 221 144 222 125 222 125 c 1
 482 695 l 1
 671 695 l 1
 671 0 l 1
 541 0 l 1
 541 538 l 2
 541 550 540 569 540 569 c 1
 280 0 l 1
 91 0 l 1
EndSplineSet
EndChar

StartChar: afii10037
Encoding: 1059 1059 32
Width: 733
Flags: HW
HStem: -0 100<183 324.978> 675 20G<15 186.951 566.571 717>
VStem: 15 160<535 695>
DStem2: 175 695 15 695 0.515651 -0.856799<0 469.864> 465 434 519 230 0.391769 0.920064<-156.246 283.231>
LayerCount: 2
Fore
SplineSet
15 695 m 1
 175 695 l 1
 322 449 l 2
 377 353 396 321 410 286 c 1
 416 317 442 375 465 434 c 2
 575 695 l 1
 717 695 l 1
 709 674 700 653 691 632 c 2
 519 230 l 2
 415 -0 345 -0 259 -0 c 2
 183 -0 l 1
 183 100 l 1
 281 100 l 2
 311 100 323 114 343 150 c 1
 15 695 l 1
EndSplineSet
EndChar

StartChar: afii10038
Encoding: 1060 1060 33
Width: 917
Flags: HMW
HStem: -0 21G<386 528> 105 74<386 386> 544 74<386 386> 675 20G<386 528>
VStem: 60 145<244 479.5> 386 142<-0 105 179 544 618 695> 709 145<244 479.5>
CounterMasks: 1 00
LayerCount: 2
Fore
SplineSet
60 362 m 0
 60 597 245 610 386 618 c 1
 386 695 l 1
 528 695 l 1
 528 618 l 1
 669 610 854 597 854 362 c 0
 854 126 669 113 528 105 c 1
 528 -0 l 1
 386 -0 l 1
 386 105 l 1
 245 113 60 126 60 362 c 0
205 362 m 0
 205 235 255 187 386 179 c 1
 386 544 l 1
 255 536 205 490 205 362 c 0
528 179 m 1
 659 187 709 239 709 363 c 0
 709 493 655 535 528 544 c 1
 528 179 l 1
EndSplineSet
EndChar

StartChar: afii10041
Encoding: 1063 1063 34
Width: 764
Flags: HW
HStem: 0 21G<523 671> 294 80<285 523> 675 20G<91 239 523 671>
VStem: 91 148<433.5 695> 523 148<0 695>
LayerCount: 2
Fore
SplineSet
91 458 m 2
 91 695 l 1
 239 695 l 1
 239 455 l 2
 239 432 240 410 253 395 c 0
 268 378 284 374 319 374 c 2
 523 374 l 1
 523 695 l 1
 671 695 l 1
 671 0 l 1
 523 0 l 1
 523 294 l 1
 456 294 323 294 323 294 c 2
 247 294 205 305 179 319 c 0
 101 359 91 409 91 458 c 2
EndSplineSet
EndChar

StartChar: afii10044
Encoding: 1066 1066 35
Width: 940
Flags: HW
HStem: 0 87<440 618> 314 95<440 624.5> 590 105<39 39>
VStem: 298 142<0 695> 739 139<178 226>
LayerCount: 2
Fore
SplineSet
39 590 m 1
 39 695 l 1
 440 695 l 1
 440 409 l 1
 591 409 l 2
 658 409 729 406 789 372 c 0
 873 323 878 237 878 202 c 0
 878 154 865 105 832 69 c 0
 768 0 657 0 579 0 c 2
 298 0 l 1
 298 593 l 1
 39 590 l 1
440 87 m 1
 565 87 l 2
 640 87 693 96 722 140 c 0
 733 157 739 179 739 202 c 0
 739 250 714 278 687 293 c 0
 650 313 607 314 566 314 c 2
 441 314 l 1
 441 314 440 293 440 280 c 2
 440 87 l 1
EndSplineSet
EndChar

StartChar: afii10046
Encoding: 1068 1068 36
Width: 733
Flags: HW
HStem: 0 87<233 421> 314 95<233 417.5> 675 20G<91 233>
VStem: 91 142<0 695> 532 139<101 226>
LayerCount: 2
Fore
SplineSet
91 0 m 1
 91 695 l 1
 233 695 l 1
 233 409 l 1
 384 409 l 2
 451 409 522 407 582 372 c 0
 666 323 671 237 671 202 c 0
 671 0 470 0 372 0 c 2
 91 0 l 1
233 87 m 1
 358 87 l 2
 433 87 486 96 515 140 c 0
 526 157 532 179 532 202 c 0
 532 250 507 278 480 293 c 0
 443 313 400 314 359 314 c 2
 234 314 l 1
 234 314 233 293 233 280 c 2
 233 87 l 1
EndSplineSet
EndChar

StartChar: afii10048
Encoding: 1070 1070 37
Width: 1143
Flags: HMW
HStem: -22 81<611.5 881.5> 294 95<239 411> 639 78<674.5 879>
VStem: 91 148<0 695> 411 146<294 407.5 389 389> 934 147<251 441>
LayerCount: 2
Fore
SplineSet
91 0 m 1
 91 695 l 1
 239 695 l 1
 239 389 l 1
 411 389 l 1
 425 664 605 717 744 717 c 0
 1014 717 1081 535 1081 347 c 0
 1081 155 1018 -22 745 -22 c 0
 478 -22 421 153 411 294 c 1
 239 294 l 1
 239 0 l 1
 91 0 l 1
557 368 m 0
 557 291 557.226 169.235 624 105 c 0
 656.109 74.1128 701 59 745 59 c 0
 790 59 838 74 871 108 c 0
 903 142 934 201 934 355 c 0
 934 469 924 600 798 633 c 0
 780 637 763 639 745 639 c 0
 693 639 649.125 620.869 621 594 c 0
 565.249 540.74 557 447 557 368 c 0
EndSplineSet
EndChar

StartChar: afii10066
Encoding: 1073 1073 38
Width: 550
Flags: HMW
HStem: -11 78<175 336> 416 73<221.5 338.5> 580 108<374 450>
VStem: 30 137<170.5 344> 382 136<133.5 333.5>
LayerCount: 2
Fore
SplineSet
30 238 m 0
 30 450 63.1689 640.134 242 675 c 0
 262.019 678.903 283 681 450 695 c 1
 450 656 l 2
 450 588 399.993 590.058 374 587 c 0
 272 575 220 576 173 530 c 0
 133 490 117 427 113 392 c 1
 138 449 189 489 278 489 c 0
 399 489 518 437 518 230 c 0
 518 37 400 -11 272 -11 c 0
 78 -11 30 103 30 238 c 0
167 240 m 0
 167 133 180 67 274 67 c 0
 379 67 382 156 382 239 c 0
 382 333 378 416 274 416 c 0
 169 416 167 323 167 240 c 0
EndSplineSet
EndChar

StartChar: afii10067
Encoding: 1074 1074 39
Width: 525
Flags: HW
HStem: 0 73<180 323.5> 233 53<180 258> 405 67<181 278.5>
VStem: 60 120<0 472> 337 125<318 377.5> 358 129<70 189>
LayerCount: 2
Fore
SplineSet
60 0 m 1
 60 472 l 1
 271 472 l 2
 372 472 462 472 462 354 c 0xf8
 462 316 443 283 386 260 c 1
 417 249 487 220 487 145 c 0xf4
 487 0 378 0 278 0 c 2
 60 0 l 1
180 73 m 1
 264 73 l 2
 318 73 358 82 358 146 c 0xf4
 358 232 277 233 239 233 c 2
 181 233 l 1
 181 233 180 194 180 174 c 2
 180 73 l 1
180 286 m 1
 234 286 337 285 337 351 c 0xf8
 337 404 294 405 263 405 c 2
 181 405 l 1
 181 405 180 380 180 360 c 2
 180 286 l 1
EndSplineSet
EndChar

StartChar: afii10068
Encoding: 1075 1075 40
Width: 433
Flags: HW
HStem: 0 21G<59 196> 402 70<59 405>
VStem: 59 137<0 472>
LayerCount: 2
Fore
SplineSet
59 0 m 1
 59 472 l 1
 405 472 l 1
 405 402 l 1
 196 404 l 5
 196 0 l 1
 59 0 l 1
EndSplineSet
EndChar

StartChar: afii10074
Encoding: 1080 1080 41
Width: 592
Flags: W
HStem: 0 21G<67 254.107 403 524> 452 20G<67 187 336.893 524>
VStem: 67 120<125 472> 403 121<0 347>
DStem2: 188 125 245 0 0.414396 0.910097<0 291.137>
LayerCount: 2
Fore
SplineSet
67 0 m 1
 67 472 l 1
 187 472 l 1
 187 172 l 2
 187 152 188 125 188 125 c 1
 346 472 l 1
 524 472 l 1
 524 0 l 1
 403 0 l 1
 403 347 l 1
 245 0 l 1
 67 0 l 1
EndSplineSet
EndChar

StartChar: afii10077
Encoding: 1083 1083 42
Width: 599
Flags: HW
HStem: -0 85<20 76> 400 72<157 530>
VStem: 157 96<291.5 472> 409 121<-0 472>
LayerCount: 2
Fore
SplineSet
20 -0 m 1
 20 85 l 1
 52 85 l 2
 71 85 98 82 121 127 c 0
 155 195 157 328 157 472 c 1
 530 472 l 1
 530 -0 l 1
 409 -0 l 1
 409 400 l 1
 253 400 l 1
 253 183 223 80 170 36 c 0
 132 4 98 0 54 -0 c 2
 20 -0 l 1
EndSplineSet
EndChar

StartChar: afii10078
Encoding: 1084 1084 43
Width: 744
Flags: HW
HStem: -0 21G<65 188 554 677> 452 20G<65 247.037 489.9 677>
VStem: 65 123<0 336> 554 123<0 336>
DStem2: 239 472 188 336 0.372885 -0.927877<107.174 345.951> 368 151 425 11 0.366449 0.930438<0 239.924>
LayerCount: 2
Fore
SplineSet
65 -0 m 1
 65 472 l 1
 239 472 l 1
 368 151 l 1
 498 472 l 1
 677 472 l 1
 677 -0 l 1
 554 -0 l 1
 554 290 l 2
 554 310 553 336 553 336 c 1
 425 11 l 1
 312 11 l 1
 267 124 203 280 188 336 c 1
 188 -0 l 1
 65 -0 l 1
EndSplineSet
EndChar

StartChar: afii10092
Encoding: 1098 1098 44
Width: 642
Flags: HW
HStem: 0 78<304 433.5> 233 53<304 449> 399 73<27 304>
VStem: 184 120<0 472> 476 128<76.5 213.5>
LayerCount: 2
Fore
SplineSet
27 397 m 1
 27 472 l 1
 304 472 l 1
 304 286 l 1
 405 286 l 2
 493 286 604 274 604 153 c 0
 604 0 474 0 393 0 c 2
 184 0 l 1
 184 399 l 1
 27 397 l 1
304 78 m 1
 372 78 l 2
 423 78 476 87 476 155 c 0
 476 232 402 233 369 233 c 2
 305 233 l 1
 305 233 304 195 304 175 c 2
 304 78 l 1
EndSplineSet
EndChar

StartChar: afii10094
Encoding: 1100 1100 45
Width: 525
Flags: HW
HStem: 0 78<187 311.5> 233 53<187 332> 452 20G<67 187>
VStem: 67 120<0 472> 359 128<74.5 213.5>
LayerCount: 2
Fore
SplineSet
67 0 m 5
 67 472 l 1
 187 472 l 1
 187 286 l 5
 288 286 l 6
 376 286 487 274 487 153 c 4
 487 0 357 0 276 0 c 6
 67 0 l 5
187 78 m 5
 256 78 l 6
 318 78 359 93 359 155 c 4
 359 233 285 233 253 233 c 6
 188 233 l 5
 188 233 187 195 187 175 c 6
 187 78 l 5
EndSplineSet
EndChar

StartChar: afii10096
Encoding: 1102 1102 46
Width: 800
Flags: HW
HStem: -11 78<426.5 598.5> 233 53<196 283> 416 73<404 623>
VStem: 59 137<0 472> 280 137<202.5 290> 632 136<143.5 297>
LayerCount: 2
Fore
SplineSet
59 0 m 1
 59 472 l 1
 196 472 l 1
 196 286 l 1
 283 286 l 1
 288 291 282 489 526 489 c 0
 720 489 768 363 768 231 c 0
 768 56 673 -11 524 -11 c 0
 329 -11 281 104 280 233 c 1
 196 233 l 1
 196 0 l 1
 59 0 l 1
417 250 m 0
 417 155 419 67 525 67 c 0
 631 67 632 164 632 240 c 0
 632 336 628 416 524 416 c 0
 420 416 417 330 417 250 c 0
EndSplineSet
EndChar

StartChar: afii10097
Encoding: 1103 1103 47
Width: 556
Flags: HW
HStem: 0 21G<18 195.024 360 494> 209 54<337 360> 400 72<191.709 360>
VStem: 53 128<284.054 387.338> 360 134<0 209 263 400>
LayerCount: 2
Fore
SplineSet
18 0 m 1
 205 213 l 1
 116 222 53 266 53 345 c 0
 53 412 100 444 140 457 c 0
 177 470 223 472 279 472 c 2
 494 472 l 1
 494 0 l 1
 360 0 l 1
 360 209 l 1
 337 209 l 1
 180 0 l 1
 18 0 l 1
181 342 m 0
 181 264 241 263 312 263 c 2
 360 263 l 1
 360 400 l 1
 339 400 304 400 304 400 c 2
 204 400 181 392 181 342 c 0
EndSplineSet
EndChar

StartChar: afii10099
Encoding: 1106 1106 48
Width: 531
Flags: HW
HStem: -167 54<196 196> 0 21G<59 196> 411 72<265 420> 501 73<20 59 193 494> 675 20G<59 193>
VStem: 59 137<0 501 574 695> 357 137<199.5 352>
LayerCount: 2
Fore
SplineSet
20 501 m 1
 20 574 l 1
 59 574 l 1
 59 695 l 1
 193 695 l 1
 193 574 l 1
 494 574 l 1
 494 501 l 1
 193 501 l 1
 193 380 l 1
 210 417 256 483 350 483 c 0
 490 483 494 407 494 297 c 0
 494 163 493 -13 376 -108 c 0
 314 -159 240 -167 196 -167 c 1
 196 -113 l 1
 357 -100 357 86 357 296 c 0
 357 355 356 373 343 390 c 0
 333 404 317 411 293 411 c 0
 237 411 203 357 197 296 c 0
 196 286 196 266 196 251 c 2
 196 0 l 1
 59 0 l 1
 59 501 l 1
 20 501 l 1
EndSplineSet
EndChar

StartChar: afii10106
Encoding: 1113 1113 49
Width: 853
Flags: HMW
HStem: 0 85<20 113.5> 233 53<530 615> 400 72<157 530>
VStem: 157 96<223.5 472> 409 121<-0 472> 686 128<75.5 194>
LayerCount: 2
Fore
SplineSet
20 -0 m 1
 20 85 l 1
 52 85 l 2
 71 85 98 82 121 127 c 0
 155 195 157 328 157 472 c 1
 530 472 l 1
 530 286 l 1
 615 286 l 2
 704.595 286 814 272.696 814 153 c 0
 814 0 679 0 606 -0 c 2
 409 -0 l 1
 409 400 l 1
 253 400 l 1
 253 47 173 -0 54 -0 c 2
 20 -0 l 1
530 78 m 1
 585 78 l 2
 639 78 686 90 686 155 c 0
 686 233 612 233 581 233 c 2
 530 233 l 1
 530 78 l 1
EndSplineSet
EndChar

StartChar: circumflex.cap
Encoding: 65536 -1 50
Width: 550
Flags: MW
HStem: 840 74<220 330>
VStem: 102 346<729 729>
LayerCount: 2
Back
SplineSet
455 729 m 1
 382 729 l 1
 275 832 l 1
 168 729 l 1
 95 729 l 1
 216 903 l 1
 334 903 l 1
 455 729 l 1
EndSplineSet
Fore
SplineSet
102 729 m 1
 220 914 l 1
 330 914 l 1
 448 729 l 1
 376 729 l 1
 275 840 l 1
 174 729 l 1
 102 729 l 1
EndSplineSet
EndChar

StartChar: ring.cap
Encoding: 65537 -1 51
Width: 550
Flags: HW
HStem: 657 72<219.848 330.152> 831 72<219.848 330.152>
VStem: 152 62<734.353 825.647> 336 62<734.353 825.647>
LayerCount: 2
Back
SplineSet
152 781 m 0
 152 843 178 903 276 903 c 0
 346 903 397 870 397 779 c 0
 397 716 372 657 274 657 c 0
 204 657 152 689 152 781 c 0
214 780 m 0
 214 732 240 729 272 729 c 2
 274 729 l 2
 306 730 336 728 336 779 c 0
 336 828 312 830 278 830 c 2
 276 830 l 2
 232 830 214 824 214 780 c 0
EndSplineSet
Fore
SplineSet
152 780 m 0
 152 842 177 903 275 903 c 0
 373 903 398 842 398 780 c 0
 398 718 373 657 275 657 c 0
 177 657 152 718 152 780 c 0
214 780 m 0
 214 730 243 729 275 729 c 0
 307 729 336 730 336 780 c 0
 336 830 307 831 275 831 c 0
 243 831 214 830 214 780 c 0
EndSplineSet
EndChar

StartChar: breve.cap
Encoding: 65538 -1 52
Width: 550
Flags: W
HStem: 730 94<193.202 356.798>
VStem: 86 72<856.82 903> 392 72<856.82 903>
LayerCount: 2
Back
SplineSet
86 903 m 1
 158 903 l 1
 164 832 246 824 276 824 c 0
 304 824 384 832 390 903 c 1
 463 903 l 1
 460 793 368 730 274 730 c 0
 180 730 90 795 86 903 c 1
EndSplineSet
Fore
SplineSet
86 903 m 1
 158 903 l 1
 164 832 246 824 275 824 c 0
 304 824 386 832 392 903 c 1
 464 903 l 1
 460 795 369 730 275 730 c 0
 181 730 90 795 86 903 c 1
EndSplineSet
EndChar

StartChar: w
Encoding: 119 119 53
Width: 744
Flags: MW
HStem: 0 21G<137.576 306.5 437.5 606.424> 452 20G<15 140.605 317.513 426.239 603.648 729>
VStem: 15 120<352 472> 609 120<352 472>
DStem2: 135 472 15 472 0.261733 -0.96514<0 352.047> 514 117 601 0 0.261733 0.96514<0 367.489>
LayerCount: 2
Back
SplineSet
15 472 m 1
 137 472 l 1
 230 133 l 1
 321 472 l 1
 416 472 l 1
 513 117 l 1
 609 472 l 1
 729 472 l 1
 600 0 l 1
 431 0 l 1
 395 133 358 268 352 336 c 1
 346 268 300 100 273 0 c 1
 143 0 l 1
 15 472 l 1
EndSplineSet
Fore
SplineSet
15 472 m 1
 135 472 l 1
 230 133 l 1
 323 472 l 1
 421 472 l 1
 514 117 l 1
 609 472 l 1
 729 472 l 1
 601 0 l 1
 451 0 l 1
 424 100 378 268 372 336 c 1
 366 268 320 100 293 0 c 1
 143 0 l 1
 15 472 l 1
EndSplineSet
EndChar
